<svg id="ロゴ" xmlns="http://www.w3.org/2000/svg" width="144.478" height="40" viewBox="0 0 144.478 40">
  <path id="Path_348" data-name="Path 348" d="M1564.434,220.5l-3.506,3.506h26.625V220.5Z" transform="translate(-1443.076 -203.746)" fill="#fff"/>
  <path id="Path_349" data-name="Path 349" d="M1512.338,269.907l-3.74,3.74h30.826v-3.74Z" transform="translate(-1394.946 -249.406)" fill="#fff"/>
  <path id="Path_350" data-name="Path 350" d="M0,269.907v3.74H23.1l3.75-3.74Z" transform="translate(0 -249.406)" fill="#fff"/>
  <path id="Path_351" data-name="Path 351" d="M0,220.5v3.506H27.311l3.515-3.506Z" transform="translate(0 -203.746)" fill="#fff"/>
  <g id="Group_75" data-name="Group 75" transform="translate(34.806)">
    <g id="Group_77" data-name="Group 77">
      <path id="Path_352" data-name="Path 352" d="M558.822,228.206h-2.086v-2.363h1.521a1.96,1.96,0,0,0,1.29-.4,1.464,1.464,0,0,0,.478-1.2V220.5H562.7v3.853a3.914,3.914,0,0,1-.288,1.5,3.815,3.815,0,0,1-.8,1.228,3.689,3.689,0,0,1-1.223.827,3.969,3.969,0,0,1-1.567.3" transform="translate(-550.576 -203.862)" fill="#fff"/>
      <path id="Path_353" data-name="Path 353" d="M630.313,226.675h-2.826l-.627-1.665h-2.723l-.617,1.665h-2.785l2.312-5.8a3.769,3.769,0,0,1,1.033-1.531,2.343,2.343,0,0,1,2.928,0,3.694,3.694,0,0,1,1.022,1.531Zm-5.333-3.935H626l-.514-1.346Z" transform="translate(-609.438 -202.327)" fill="#fff"/>
      <path id="Path_354" data-name="Path 354" d="M745.8,228.206H743.23V220.5h5.138a2.84,2.84,0,0,1,1.141.211,2.328,2.328,0,0,1,.8.56,2.268,2.268,0,0,1,.473.8,2.769,2.769,0,0,1,.154.909,2.907,2.907,0,0,1-.154.925,2.357,2.357,0,0,1-1.274,1.418,2.668,2.668,0,0,1-1.141.226H745.8Zm0-5.025h2.517v-.319H745.8Z" transform="translate(-722.099 -203.862)" fill="#fff"/>
      <path id="Path_355" data-name="Path 355" d="M828.968,226.675h-2.826l-.627-1.665h-2.723l-.617,1.665h-2.785l2.312-5.8a3.769,3.769,0,0,1,1.033-1.531,2.343,2.343,0,0,1,2.928,0,3.693,3.693,0,0,1,1.022,1.531Zm-5.333-3.935h1.017l-.514-1.346Z" transform="translate(-792.146 -202.327)" fill="#fff"/>
      <path id="Path_356" data-name="Path 356" d="M949.18,227.4a1.925,1.925,0,0,1-1.156-.344,6.633,6.633,0,0,1-1.043-.981l-2.425-2.733v3.925h-2.671v-5.908a2.119,2.119,0,0,1,.149-.827,1.716,1.716,0,0,1,.39-.586,1.59,1.59,0,0,1,.57-.349,1.994,1.994,0,0,1,.678-.118,1.846,1.846,0,0,1,.961.241,3.669,3.669,0,0,1,.858.766l2.6,3v-3.925h2.672v6.268a1.7,1.7,0,0,1-.144.735,1.388,1.388,0,0,1-.37.488,1.416,1.416,0,0,1-.514.267,2.019,2.019,0,0,1-.555.082" transform="translate(-904.807 -202.922)" fill="#fff"/>
      <path id="Path_357" data-name="Path 357" d="M1064.737,228.206H1057.6V220.5h7.141v2.363h-4.418v.349h4.418v2.281h-4.418v.349h4.418Z" transform="translate(-1011.229 -203.862)" fill="#fff"/>
      <path id="Path_358" data-name="Path 358" d="M1154.8,228.206H1150.5v-2.363h4.706v-.349h-2.261a2.682,2.682,0,0,1-.971-.18,2.369,2.369,0,0,1-.812-.514,2.551,2.551,0,0,1-.766-1.865,2.3,2.3,0,0,1,.2-.95,2.4,2.4,0,0,1,.55-.776,2.576,2.576,0,0,1,.832-.519,2.781,2.781,0,0,1,1.028-.19h4.675v2.363h-4.531v.349h1.819a4.161,4.161,0,0,1,1.141.149,2.446,2.446,0,0,1,.894.452,2.059,2.059,0,0,1,.576.76,2.574,2.574,0,0,1,.205,1.064,2.378,2.378,0,0,1-.791,1.86,3.163,3.163,0,0,1-2.189.709" transform="translate(-1096.578 -203.862)" fill="#fff"/>
      <path id="Path_359" data-name="Path 359" d="M1253.407,228.206h-7.141V220.5h7.141v2.363h-4.418v.349h4.418v2.281h-4.418v.349h4.418Z" transform="translate(-1184.753 -203.862)" fill="#fff"/>
      <path id="Path_360" data-name="Path 360" d="M487.913,344.206h-3.73a4.592,4.592,0,0,1-1.7-.3,4.02,4.02,0,0,1-1.32-.827,3.763,3.763,0,0,1-.858-1.228,3.743,3.743,0,0,1,.858-4.213,4.139,4.139,0,0,1,1.32-.827,4.525,4.525,0,0,1,1.7-.308h3.73v2.363h-3.319a2.018,2.018,0,0,0-1.274.39,1.452,1.452,0,0,0,0,2.2,2.017,2.017,0,0,0,1.274.391h.647v-2.631h2.672Z" transform="translate(-480.001 -311.109)" fill="#fff"/>
      <path id="Path_361" data-name="Path 361" d="M579.85,344.206h-3.165l-2.107-2.918v2.918h-2.672v-3.36a1.631,1.631,0,0,1,.447-1.156,1.587,1.587,0,0,1,1.218-.478H577.1v-.349H570.88V336.5h6.3a2.991,2.991,0,0,1,1.161.211,2.527,2.527,0,0,1,.837.55,2.252,2.252,0,0,1,.5.781,2.477,2.477,0,0,1,.17.894,2.539,2.539,0,0,1-.139.827,2.26,2.26,0,0,1-.411.73,2.381,2.381,0,0,1-.683.55,2.686,2.686,0,0,1-.945.3Z" transform="translate(-563.585 -311.109)" fill="#fff"/>
      <path id="Path_362" data-name="Path 362" d="M694.12,342.675h-2.826l-.627-1.665h-2.723l-.617,1.665h-2.785l2.312-5.8a3.769,3.769,0,0,1,1.033-1.531,2.343,2.343,0,0,1,2.928,0,3.693,3.693,0,0,1,1.022,1.531Zm-5.333-3.935H689.8l-.514-1.346Z" transform="translate(-668.123 -309.576)" fill="#fff"/>
      <path id="Path_363" data-name="Path 363" d="M814.332,343.4a1.925,1.925,0,0,1-1.156-.344,6.629,6.629,0,0,1-1.043-.981l-2.425-2.733v3.925h-2.672v-5.908a2.124,2.124,0,0,1,.149-.827,1.718,1.718,0,0,1,.391-.586,1.592,1.592,0,0,1,.57-.349,1.992,1.992,0,0,1,.678-.118,1.846,1.846,0,0,1,.961.241,3.665,3.665,0,0,1,.858.766l2.6,3v-2.569a1.3,1.3,0,0,1,1.356-1.356h1.315v6.268a1.7,1.7,0,0,1-.144.735,1.386,1.386,0,0,1-.37.488,1.417,1.417,0,0,1-.514.267,2.018,2.018,0,0,1-.555.082" transform="translate(-780.784 -310.173)" fill="#fff"/>
      <path id="Path_364" data-name="Path 364" d="M915.385,344.206a1.966,1.966,0,0,1-1.469-.6,2.136,2.136,0,0,1-.586-1.557v-2.836H916v2.631h.8a2.474,2.474,0,0,0,1.341-.339,1.241,1.241,0,0,0,.539-1.141,1.277,1.277,0,0,0-.539-1.13,2.316,2.316,0,0,0-1.341-.37h-4.3V336.5h4.86a4.386,4.386,0,0,1,1.6.288,3.892,3.892,0,0,1,1.274.791,3.665,3.665,0,0,1,.843,1.2,3.727,3.727,0,0,1,.308,1.521,4.148,4.148,0,0,1-.277,1.516,3.621,3.621,0,0,1-2.024,2.081,4.132,4.132,0,0,1-1.624.308Z" transform="translate(-877.788 -311.109)" fill="#fff"/>
      <path id="Path_365" data-name="Path 365" d="M1055.235,344.206h-2.569V336.5h5.138a2.84,2.84,0,0,1,1.141.211,2.326,2.326,0,0,1,.8.56,2.269,2.269,0,0,1,.473.8,2.771,2.771,0,0,1,.154.909,2.909,2.909,0,0,1-.154.925,2.357,2.357,0,0,1-1.274,1.418,2.668,2.668,0,0,1-1.141.226h-2.569Zm0-5.025h2.518v-.318h-2.518Z" transform="translate(-1006.695 -311.109)" fill="#fff"/>
      <path id="Path_366" data-name="Path 366" d="M1160.449,344.206h-3.165l-2.106-2.918v2.918h-2.672V336.5h5.271a2.99,2.99,0,0,1,1.161.211,2.526,2.526,0,0,1,.837.55,2.251,2.251,0,0,1,.5.781,2.481,2.481,0,0,1,.17.894,2.54,2.54,0,0,1-.139.827,2.257,2.257,0,0,1-.411.73,2.379,2.379,0,0,1-.683.55,2.685,2.685,0,0,1-.945.3Zm-5.374-4.932h2.62v-.339h-2.62Z" transform="translate(-1098.52 -311.109)" fill="#fff"/>
      <rect id="Rectangle_44" data-name="Rectangle 44" width="2.672" height="7.706" transform="translate(62.186 25.391)" fill="#fff"/>
      <path id="Path_367" data-name="Path 367" d="M1294.476,344.206h-3.35l3.1-3.894-3.1-3.812h3.4l1.521,1.86,1.479-1.86h3.319l-3.1,3.9,3.134,3.8h-3.422l-1.521-1.87Z" transform="translate(-1226.013 -311.109)" fill="#fff"/>
      <path id="Path_368" data-name="Path 368" d="M781.091,143.77V141h2.219v.369h-1.795v.809h1.795v.369h-1.795v1.222Z" transform="translate(-756.921 -130.275)" fill="#fff"/>
      <path id="Path_369" data-name="Path 369" d="M817.615,142.056a1.61,1.61,0,0,1-.072.5.945.945,0,0,1-.6.624,1.56,1.56,0,0,1-.548.087h-.369a1.575,1.575,0,0,1-.55-.087.984.984,0,0,1-.38-.244.968.968,0,0,1-.218-.38,1.655,1.655,0,0,1-.07-.5v-.443a1.669,1.669,0,0,1,.07-.5.985.985,0,0,1,.218-.382.959.959,0,0,1,.38-.244,1.605,1.605,0,0,1,.55-.085h.369a1.59,1.59,0,0,1,.548.085.961.961,0,0,1,.379.244,1,1,0,0,1,.22.382,1.624,1.624,0,0,1,.072.5Zm-2.345.1a.817.817,0,0,0,.163.554.686.686,0,0,0,.539.185h.48a.686.686,0,0,0,.541-.185.825.825,0,0,0,.161-.554v-.646a.823.823,0,0,0-.161-.556.69.69,0,0,0-.541-.183h-.48a.69.69,0,0,0-.539.183.816.816,0,0,0-.163.556Z" transform="translate(-787.932 -129.724)" fill="#fff"/>
      <path id="Path_370" data-name="Path 370" d="M861.139,143.77h-.524l-1.086-1.185a.313.313,0,0,1-.076-.133.247.247,0,0,1,0-.137.2.2,0,0,1,.08-.1.262.262,0,0,1,.153-.042h.639a.56.56,0,0,0,.334-.074.331.331,0,0,0,.094-.273v-.114a.319.319,0,0,0-.094-.27.584.584,0,0,0-.334-.07h-1.159v2.4h-.425V141h1.492a2.035,2.035,0,0,1,.379.033.873.873,0,0,1,.3.114.559.559,0,0,1,.2.22.752.752,0,0,1,.072.349v.1a.6.6,0,0,1-.257.569,1.45,1.45,0,0,1-.718.148H860Z" transform="translate(-828.335 -130.275)" fill="#fff"/>
      <path id="Path_371" data-name="Path 371" d="M895.907,143.22l.425-2.326a.742.742,0,0,1,.155-.367.409.409,0,0,1,.321-.124.4.4,0,0,1,.345.15.982.982,0,0,1,.164.371l.451,1.9a.378.378,0,0,0,.024.076.044.044,0,0,0,.042.028.043.043,0,0,0,.044-.026.464.464,0,0,0,.022-.074l.458-1.905a.9.9,0,0,1,.174-.371.414.414,0,0,1,.34-.15.439.439,0,0,1,.342.124.732.732,0,0,1,.157.367l.417,2.326h-.451l-.384-2.345a.158.158,0,0,0-.026-.078.06.06,0,0,0-.048-.022.075.075,0,0,0-.055.022.178.178,0,0,0-.037.081l-.451,1.9a.855.855,0,0,1-.164.364.421.421,0,0,1-.338.127.4.4,0,0,1-.34-.138.914.914,0,0,1-.151-.338l-.447-1.909a.224.224,0,0,0-.033-.085.063.063,0,0,0-.052-.022.071.071,0,0,0-.052.022.135.135,0,0,0-.03.078l-.391,2.345Z" transform="translate(-862.52 -129.724)" fill="#fff"/>
      <path id="Path_372" data-name="Path 372" d="M953.8,143.818a1.172,1.172,0,0,1-.787-.218.875.875,0,0,1-.247-.691V141h.425v1.939a.509.509,0,0,0,.131.384.573.573,0,0,0,.408.126h.665a.563.563,0,0,0,.4-.126.5.5,0,0,0,.135-.384V141h.425v1.909a.868.868,0,0,1-.251.691,1.243,1.243,0,0,1-.82.218Z" transform="translate(-914.812 -130.276)" fill="#fff"/>
      <path id="Path_373" data-name="Path 373" d="M995.542,143.77V141h.425v2.4h1.647v.369Z" transform="translate(-954.156 -130.275)" fill="#fff"/>
      <path id="Path_374" data-name="Path 374" d="M1027.667,143.22l-.318-.746H1025.8l-.318.746h-.454l1.045-2.363a1.5,1.5,0,0,1,.19-.327.379.379,0,0,1,.316-.127.4.4,0,0,1,.316.122,1.137,1.137,0,0,1,.179.292l1.056,2.4Zm-1.2-2.312-.5,1.174h1.219l-.5-1.171a.255.255,0,0,0-.052-.09.084.084,0,0,0-.059-.024.086.086,0,0,0-.057.02.261.261,0,0,0-.054.09" transform="translate(-981.274 -129.724)" fill="#fff"/>
      <path id="Path_375" data-name="Path 375" d="M1089.2,143.77V143.4h.838v-1.909a.134.134,0,0,0-.028-.09.106.106,0,0,0-.083-.031h-.643V141h.709a.463.463,0,0,1,.358.122.529.529,0,0,1,.111.366V143.4h.739v.369Z" transform="translate(-1040.293 -130.275)" fill="#fff"/>
      <path id="Path_376" data-name="Path 376" d="M841.573,480.683v.49h-3.021v-.6a.991.991,0,0,1,.15-.544,1.38,1.38,0,0,1,.487-.431l1.449-.823a1.263,1.263,0,0,0,.291-.206.344.344,0,0,0,.1-.25.333.333,0,0,0-.088-.23.41.41,0,0,0-.313-.1H838.6v-.49h2.047a1.022,1.022,0,0,1,.737.228.778.778,0,0,1,.233.58.745.745,0,0,1-.186.546,2,2,0,0,1-.475.345l-1.5.823a.781.781,0,0,0-.247.2.389.389,0,0,0-.091.25v.215Z" transform="translate(-809.769 -441.231)" fill="#fff"/>
      <path id="Path_377" data-name="Path 377" d="M899.7,478.9a2.141,2.141,0,0,1-.1.659,1.254,1.254,0,0,1-.793.828,2.068,2.068,0,0,1-.727.115h-.147a2.089,2.089,0,0,1-.73-.115,1.3,1.3,0,0,1-.5-.323,1.284,1.284,0,0,1-.289-.5,2.188,2.188,0,0,1-.093-.659v-.588a2.206,2.206,0,0,1,.093-.663,1.308,1.308,0,0,1,.289-.507,1.27,1.27,0,0,1,.5-.323,2.131,2.131,0,0,1,.73-.113h.147a2.109,2.109,0,0,1,.727.113,1.274,1.274,0,0,1,.5.323,1.336,1.336,0,0,1,.291.507,2.158,2.158,0,0,1,.1.663Zm-2.767.132a1.084,1.084,0,0,0,.216.735.91.91,0,0,0,.715.245h.294a.909.909,0,0,0,.717-.245,1.092,1.092,0,0,0,.213-.735v-.857a1.091,1.091,0,0,0-.213-.737.914.914,0,0,0-.717-.242h-.294a.915.915,0,0,0-.715.242,1.082,1.082,0,0,0-.216.737Z" transform="translate(-862.898 -440.502)" fill="#fff"/>
      <path id="Path_378" data-name="Path 378" d="M961.01,480.683v.49h-3.021v-.6a.992.992,0,0,1,.149-.544,1.382,1.382,0,0,1,.487-.431l1.449-.823a1.262,1.262,0,0,0,.291-.206.343.343,0,0,0,.1-.25.333.333,0,0,0-.088-.23.409.409,0,0,0-.313-.1h-2.027v-.49h2.047a1.022,1.022,0,0,1,.737.228.777.777,0,0,1,.233.58.745.745,0,0,1-.186.546,2.005,2.005,0,0,1-.475.345l-1.5.823a.784.784,0,0,0-.247.2.39.39,0,0,0-.091.25v.215Z" transform="translate(-919.618 -441.231)" fill="#fff"/>
      <path id="Path_379" data-name="Path 379" d="M1020.488,478.974a1.385,1.385,0,0,1,.835.213.918.918,0,0,1,.286.781v.245a.8.8,0,0,1-.35.749,1.9,1.9,0,0,1-.977.211h-1.538v-.49h1.675a.8.8,0,0,0,.48-.113.388.388,0,0,0,.147-.328V479.9a.391.391,0,0,0-.147-.323.773.773,0,0,0-.48-.117h-1.675V477.5h2.865v.49h-2.3v.984Z" transform="translate(-975.497 -441.231)" fill="#fff"/>
      <path id="Path_380" data-name="Path 380" d="M638.743,4.391l-3.418,3.316h-4.36l5.424-5.383C638.405.328,639.378,0,642.816,0H656.4L653.45,2.886H643.205c-2.569,0-3.115.2-4.462,1.5M653.01,3.347h-9.743c-2.587,0-2.992.2-4.165,1.371l-2.989,2.988h4.043l.962-.962c.635-.635.919-.7,2.2-.7h6.99Zm1.054,4.36L661.791,0h-4.8l-7.706,7.706Z" transform="translate(-618.846 0)" fill="#fff"/>
      <path id="Path_381" data-name="Path 381" d="M949.423,76.686a.843.843,0,1,1,0-1.686.808.808,0,0,1,.6.244.876.876,0,0,1,0,1.2.8.8,0,0,1-.6.242m0-1.553a.671.671,0,0,0-.5.207.726.726,0,0,0,0,1,.711.711,0,0,0,1,0,.727.727,0,0,0,0-1,.671.671,0,0,0-.5-.207m-.165.849v.33h-.186v-.936h.352a.457.457,0,0,1,.274.068.238.238,0,0,1,.091.2.431.431,0,0,1-.037.2.259.259,0,0,1-.126.107l.176.355h-.2l-.16-.33Zm0-.46v.315h.189a.175.175,0,0,0,.125-.037.161.161,0,0,0,.038-.12q0-.157-.2-.157Z" transform="translate(-910.96 -68.979)" fill="#fff"/>
      <path id="Path_382" data-name="Path 382" d="M1053.53,5.28h6.217l.462-.46h-6.217L1058.825,0h8.968l-2.432,2.426h-5.408l-.461.46h2.957c.953,0,1.339.147,1.618.493.453.568.037,1.408-.58,2.169a5.265,5.265,0,0,1-2.177,1.734,7.814,7.814,0,0,1-2.938.424H1051.1Z" transform="translate(-1005.253 0.001)" fill="#fff"/>
      <path id="Path_383" data-name="Path 383" d="M988.815,7.706,996.542,0H987.1l-2.433,2.426h4.65l-5.294,5.28Z" transform="translate(-943.563 0)" fill="#fff"/>
    </g>
  </g>
</svg>
