<svg xmlns="http://www.w3.org/2000/svg" width="566.214" height="588.353" viewBox="0 0 566.214 588.353">
  <g id="map" transform="translate(567.361 588.353) rotate(180)" opacity="0.37">
    <g id="Group_170" data-name="Group 170" transform="translate(157.93 0)" opacity="0.68">
      <path id="Path_73" data-name="Path 73" d="M69.448,2.862l39.685,20.031,29.313,7.631,25.447-12.958,13.787-8.981h21.675l4.481,11.446,3.608,26.231,9.921,17.169,23,20.985L228.638,95.863,186.67,131.441,161.9,181.71l-23.45,71.307-71.291,7.5-139.58-1.6-4.25-47.288L-72.426,145S-4.059,109.44,0,108.263,16.235,105.4,16.235,105.4L32.469,92.047,42.841,72.493,53.214,44.354V0h7.133Z" transform="translate(0.451 327.337)" fill="#171717" stroke="#707070" stroke-width="1" opacity="0.26"/>
      <path id="Path_74" data-name="Path 74" d="M311.184,361.753l-31.136,15.563-34.724,30.621-34.235-36.33L208.8,349.29,197.56,324.378H177.228l-17.137,12.975L135.74,349.29l-26.156-8.823L71.252,318.15,34.273,314l-129.24,31.915L-107.1,314,9.96,171.207l19.8-25.367L135.74,20.76,160.092,0H345.916l-4.9,131.055-4.633,220.358Z" transform="translate(0 0)" fill="#171717" opacity="0.26"/>
      <path id="Path_76" data-name="Path 76" d="M96.506,0,47.351,41.5,31.116,63.432,19.842,91.094-5.53,161.62l121.246,4.39s4.931-2.882,21.9-2.544,52.915-1.846,52.915-1.846l-2.6-187.556-5.983-14.946Z" transform="translate(148.818 415.569)" fill="#171717" stroke="#707070" stroke-width="1" opacity="0.26"/>
      <path id="Path_78" data-name="Path 78" d="M-82.006,0l-1.417,179.655L-95.85,306.924,97.408,68.689,43.292,0Z" transform="translate(0.451 0)" fill="#171717" opacity="0.26"/>
      <g id="Path_79" data-name="Path 79" transform="translate(46.351 0)" fill="#171717" opacity="0.26">
        <path d="M 48.74325561523438 61.57811737060547 L 1.025143146514893 0.5000014305114746 L 108.8414535522461 0.5000014305114746 L 48.74325561523438 61.57811737060547 Z" stroke="none"/>
        <path d="M 2.050270080566406 1 L 48.78647613525391 60.82129669189453 L 107.6480102539062 1 L 2.050270080566406 1 M 0 0 L 110.0348892211914 0 L 48.70003128051758 62.33494567871094 L 0 0 Z" stroke="none" fill="#707070"/>
      </g>
    </g>
    <g id="Group_171" data-name="Group 171" transform="translate(0 226.796) rotate(-48)">
      <path id="Path_75" data-name="Path 75" d="M0,0,50.7,7.9,48.032,54.466,37.892,81.558,28.018,98.49l-10.941,8.741-8.272,3.677H0Z" transform="translate(2.362 284.386)" fill="#1a1a1a" opacity="0.24"/>
      <path id="Path_77" data-name="Path 77" d="M0,29.093,30.777,55.324V0Z" transform="translate(250.645 349.087)" fill="#171717" opacity="0.47"/>
      <path id="Path_80" data-name="Path 80" d="M150.552,77.776l8.672,6.6,5.7-4.5,16.5,4.5,4.51-16.142,11.1-13.7L217.5,16.876,233.807,4.4,241.092,0l34.342,14.675,2.775,12.107-5.55,12.474-5.2,28.983-7.632,9.539-7.632,11.74-16.3,15.042-22.9-4.036-13.876,7.7-2.08,26.781-6.245,23.846,6.245,15.042,10.059,9.172,21.161,15.409,7.632,10.639v9.172l-5.9,5.87-8.325,2.935-8.672-6.237-5.9-2.568h-5.9l-4.161,5.87v5.136l-6.245,1.834H183.16l-6.938-4.036h-7.632l-6.938,4.036-4.51,12.84,2.081,9.172,19.426,23.846,16.3,15.409L207.1,303.034l3.122,16.142v13.207l2.775,21.278V361l-5.9,11.74-18.732,23.113-14.57,6.97-2.081,4.4-1.734,14.308,1.734,26.048-4.856,20.178-17,43.657-26.017-5.5-18.385-3.3L94.7,494.539l-15.263-8.071L69.032,488.3l-4.857,23.113H54.462l-2.775-5.5H44.749l-11.794,2.935L10.06,505.912,0,498.575v-42.19l10.06-6.6,4.856-16.142L40.934,417.5,64.175,393.65,85.336,356.23l14.917-10.272,3.122-16.876v-6.6l2.081-3.3,18.385-3.3-4.163-9.172-9.366-8.438,7.978-15.409,5.55-5.87L103.375,253.14V231.127l6.938-19.444,3.122-32.651-3.122-6.971-6.938,11.006-10.754-6.237-13.182,2.2-10.407-6.971-7.979-6.6-15.61,6.6-13.876-8.438L6.591,158.854l50.3-49.16H69.032l34.342-9.172,4.331-7.988,10.585-8.154,16.651-2.935Z" transform="translate(1.713 0)" fill="#0200c4" opacity="0.15"/>
      <path id="Path_81" data-name="Path 81" d="M19.382,0,38.158,5.851,17,68.585l-17-6.6Z" transform="translate(39.907 324.563)" fill="#15151e" opacity="0.24"/>
      <path id="Path_82" data-name="Path 82" d="M24.976,0l7.285,17.61L7.285,34.853,0,17.61Z" transform="translate(12.155 386.545)" fill="#15151e" opacity="0.24"/>
      <path id="Path_83" data-name="Path 83" d="M17.574,0l5.55,12.218L5.543,23.548,0,11.582Z" transform="translate(24.146 282.475) rotate(39)" fill="#15151e" opacity="0.6"/>
      <path id="Path_84" data-name="Path 84" d="M17.574,0l5.55,12.218L5.543,23.548,0,11.582Z" transform="translate(14.82 359.446) rotate(39)" fill="#15151e" opacity="0.6"/>
      <path id="Path_85" data-name="Path 85" d="M13.974,0l5.8,9.108L7.1,16.781,0,8.008Z" transform="translate(229.989 288.019) rotate(39)" fill="#15151e" opacity="0.6"/>
      <path id="Path_86" data-name="Path 86" d="M6.89,0,21.075,17.517l-8.843,3.167L0,5.579Z" transform="translate(246.821 260.044) rotate(39)" fill="#15151e" opacity="0.6"/>
      <path id="Path_87" data-name="Path 87" d="M6.89,0,26.516,24.237l-6.89,5.579L0,5.579Z" transform="translate(257.572 262.691) rotate(39)" fill="#15151e" opacity="0.6"/>
      <path id="Path_88" data-name="Path 88" d="M6.89,0,22.137,18.829l-6.89,5.579L0,5.579Z" transform="translate(272.548 252.958) rotate(39)" fill="#15151e" opacity="0.6"/>
      <path id="Path_89" data-name="Path 89" d="M54.89,0,58.38,6.73,24.717,35.6l-2.463-3.256L6.654,46.021,0,44.235Z" transform="translate(118.091 393.148)" fill="#fff" opacity="0.6"/>
      <path id="Path_90" data-name="Path 90" d="M33.253,0,35.46,3.74,1.8,32.612,0,29.74l10.468-9.552Z" transform="translate(115.071 376.537)" fill="#15151e" opacity="0.6"/>
      <path id="Path_91" data-name="Path 91" d="M54.89,0,58.38,6.73,24.717,35.6l-2.463-3.256L6.654,46.021,0,44.235Z" transform="translate(118.091 393.148)" fill="#15151e"/>
      <path id="Path_92" data-name="Path 92" d="M15.012,0,16.86,3.907,1.8,17.224,0,14.352,10.468,4.8Z" transform="translate(98.212 408.231)" fill="#15151e" opacity="0.6"/>
      <path id="Path_93" data-name="Path 93" d="M59.732,0l4.926,4.559L1.584,58.889,0,52.968l7.8-7.6Z" transform="translate(102.55 377.188)" fill="#15151e" opacity="0.6"/>
      <path id="Path_94" data-name="Path 94" d="M10.47,0,15.4,4.559,4.39,14.039,0,9.147Z" transform="translate(128.586 428.582)" fill="#15151e" opacity="0.6"/>
      <path id="Path_95" data-name="Path 95" d="M8.64,0,15,7.164,5.766,13.676,0,8.076Z" transform="translate(183.2 398.462)" fill="#15151e" opacity="0.6"/>
      <path id="Path_96" data-name="Path 96" d="M5.59,0,9.707,4.432,3.731,8.46,0,5Z" transform="translate(112.639 396.84)" fill="#15151e" opacity="0.6"/>
      <path id="Path_97" data-name="Path 97" d="M10.831,0l8.3,8.074L7.5,15,0,8.665Z" transform="matrix(0.438, 0.899, -0.899, 0.438, 150.182, 449.311)" fill="#15151e" opacity="0.6"/>
      <path id="Path_98" data-name="Path 98" d="M3.331,0l8.3,8.074L0,15Z" transform="matrix(0.438, 0.899, -0.899, 0.438, 133.74, 453.636)" fill="#15151e" opacity="0.6"/>
      <path id="Path_99" data-name="Path 99" d="M3.331,0l3.9.176L5.463,15.652,0,15Z" transform="matrix(0.438, 0.899, -0.899, 0.438, 80.023, 387.124)" fill="#15151e" opacity="0.6"/>
      <path id="Path_100" data-name="Path 100" d="M7.993,36.242,0,19.871,3.561,0,6.966.255,5.8,5.309,4.015,11.64,3.752,21.7l3.5,5.4,5.335,7.345,15.275,8.68,4.882,11.037-5.463-.653-3.342-8.433Z" transform="matrix(0.438, 0.899, -0.899, 0.438, 120.789, 337.752)" fill="#15151e" opacity="0.6"/>
      <path id="Path_101" data-name="Path 101" d="M7.067,0,9.821,4.155,3.407,7.9,0,3.916Z" transform="translate(236.519 224.411) rotate(92)" fill="#15151e" opacity="0.6"/>
      <path id="Path_102" data-name="Path 102" d="M12.232,0,17,5.133.17,9.712,0,4.846Z" transform="translate(232.291 224.478) rotate(92)" fill="#15151e" opacity="0.6"/>
      <path id="Path_103" data-name="Path 103" d="M6.889,0,9.577,2.891.1,5.47,0,2.729Z" transform="translate(206.081 224.323) rotate(92)" fill="#15151e" opacity="0.6"/>
      <path id="Path_104" data-name="Path 104" d="M6.889,0,9.577,2.891.1,5.47,0,2.729Z" transform="translate(220.354 230.298) rotate(92)" fill="#15151e" opacity="0.6"/>
      <path id="Path_105" data-name="Path 105" d="M6.889,0,9.577,2.891.1,5.47,0,2.729Z" transform="translate(208.965 222.047) rotate(92)" fill="#15151e" opacity="0.6"/>
      <path id="Path_106" data-name="Path 106" d="M6.889,0,9.577,2.891.1,5.47,0,2.729Z" transform="translate(214.077 231.821) rotate(92)" fill="#15151e" opacity="0.6"/>
      <path id="Path_107" data-name="Path 107" d="M6.889,0,9.577,2.891.1,5.47,0,2.729Z" transform="translate(194.527 232.105) rotate(92)" fill="#15151e" opacity="0.6"/>
      <path id="Path_108" data-name="Path 108" d="M6.889,0,9.577,2.891.1,5.47,0,2.729Z" transform="translate(201.513 229.544) rotate(92)" fill="#15151e" opacity="0.6"/>
      <g id="パス_108" data-name="パス 108" transform="translate(168.073 241.879) rotate(92)" opacity="0.6">
        <path id="Path_109" data-name="Path 109" d="M.093,5.357,0,2.705,6.827,0,9.444,2.814Z" transform="translate(0.048 0.054)" fill="#15151e"/>
        <path id="Path_110" data-name="Path 110" d="M6.863.108.1,2.788.186,5.352l9.22-2.508L6.863.108M6.889,0,9.577,2.891.1,5.47,0,2.729Z" transform="translate(0 0)" fill="#15151e"/>
      </g>
      <path id="Path_111" data-name="Path 111" d="M6.889,0,9.577,2.891.1,5.47,0,2.729Z" transform="translate(199.181 234.431) rotate(92)" fill="#15151e" opacity="0.6"/>
      <g id="パス_108-2" data-name="パス 108" transform="matrix(-0.777, 0.629, -0.629, -0.777, 171.482, 237.385)" opacity="0.6">
        <path id="Path_109-2" data-name="Path 109" d="M.02,5.709,0,2.967,6.674,0,9.13,2.847Z" transform="translate(0.046 0.056)" fill="#15151e"/>
        <path id="Path_110-2" data-name="Path 110" d="M6.706.112.092,3.052.112,5.7,9.095,2.88,6.706.112M6.734,0,9.258,2.925.021,5.827,0,2.994Z" transform="translate(0 0)" fill="#15151e"/>
      </g>
      <g id="パス_108-3" data-name="パス 108" transform="matrix(-0.998, 0.07, -0.07, -0.998, 177.487, 233.258)" opacity="0.6">
        <path id="Path_109-3" data-name="Path 109" d="M.082,5.676,0,2.872,6.463,0,8.932,2.97Z" transform="translate(0.046 0.057)" fill="#15151e"/>
        <path id="Path_110-3" data-name="Path 110" d="M6.5.114.092,2.96.171,5.67,8.9,3,6.5.114M6.522,0,9.059,3.052.085,5.795,0,2.9Z" transform="translate(0 0)" fill="#15151e"/>
      </g>
    </g>
  </g>
</svg>
